<svg xmlns="http://www.w3.org/2000/svg" width="1000" height="620" viewBox="0 0 1000 620">
<rect width="100%" height="100%" fill="#ffffff"/>
<text x="500" y="34" text-anchor="middle" font-family="Arial, sans-serif" font-size="22" font-weight="700" fill="#111827">Baseline MLP Action Prediction MSE</text>
<line x1="90" y1="535.00" x2="965" y2="535.00" stroke="#e5e7eb" stroke-width="1"/>
<text x="78" y="539.00" text-anchor="end" font-family="Arial, sans-serif" font-size="13" fill="#4b5563">0.000</text>
<line x1="90" y1="440.00" x2="965" y2="440.00" stroke="#e5e7eb" stroke-width="1"/>
<text x="78" y="444.00" text-anchor="end" font-family="Arial, sans-serif" font-size="13" fill="#4b5563">0.016</text>
<line x1="90" y1="345.00" x2="965" y2="345.00" stroke="#e5e7eb" stroke-width="1"/>
<text x="78" y="349.00" text-anchor="end" font-family="Arial, sans-serif" font-size="13" fill="#4b5563">0.033</text>
<line x1="90" y1="250.00" x2="965" y2="250.00" stroke="#e5e7eb" stroke-width="1"/>
<text x="78" y="254.00" text-anchor="end" font-family="Arial, sans-serif" font-size="13" fill="#4b5563">0.049</text>
<line x1="90" y1="155.00" x2="965" y2="155.00" stroke="#e5e7eb" stroke-width="1"/>
<text x="78" y="159.00" text-anchor="end" font-family="Arial, sans-serif" font-size="13" fill="#4b5563">0.065</text>
<line x1="90" y1="60.00" x2="965" y2="60.00" stroke="#e5e7eb" stroke-width="1"/>
<text x="78" y="64.00" text-anchor="end" font-family="Arial, sans-serif" font-size="13" fill="#4b5563">0.082</text>
<line x1="90.00" y1="60" x2="90.00" y2="535" stroke="#f3f4f6" stroke-width="1"/>
<text x="90.00" y="563" text-anchor="middle" font-family="Arial, sans-serif" font-size="13" fill="#4b5563">1</text>
<line x1="200.76" y1="60" x2="200.76" y2="535" stroke="#f3f4f6" stroke-width="1"/>
<text x="200.76" y="563" text-anchor="middle" font-family="Arial, sans-serif" font-size="13" fill="#4b5563">11</text>
<line x1="311.52" y1="60" x2="311.52" y2="535" stroke="#f3f4f6" stroke-width="1"/>
<text x="311.52" y="563" text-anchor="middle" font-family="Arial, sans-serif" font-size="13" fill="#4b5563">21</text>
<line x1="422.28" y1="60" x2="422.28" y2="535" stroke="#f3f4f6" stroke-width="1"/>
<text x="422.28" y="563" text-anchor="middle" font-family="Arial, sans-serif" font-size="13" fill="#4b5563">31</text>
<line x1="521.96" y1="60" x2="521.96" y2="535" stroke="#f3f4f6" stroke-width="1"/>
<text x="521.96" y="563" text-anchor="middle" font-family="Arial, sans-serif" font-size="13" fill="#4b5563">40</text>
<line x1="632.72" y1="60" x2="632.72" y2="535" stroke="#f3f4f6" stroke-width="1"/>
<text x="632.72" y="563" text-anchor="middle" font-family="Arial, sans-serif" font-size="13" fill="#4b5563">50</text>
<line x1="743.48" y1="60" x2="743.48" y2="535" stroke="#f3f4f6" stroke-width="1"/>
<text x="743.48" y="563" text-anchor="middle" font-family="Arial, sans-serif" font-size="13" fill="#4b5563">60</text>
<line x1="854.24" y1="60" x2="854.24" y2="535" stroke="#f3f4f6" stroke-width="1"/>
<text x="854.24" y="563" text-anchor="middle" font-family="Arial, sans-serif" font-size="13" fill="#4b5563">70</text>
<line x1="965.00" y1="60" x2="965.00" y2="535" stroke="#f3f4f6" stroke-width="1"/>
<text x="965.00" y="563" text-anchor="middle" font-family="Arial, sans-serif" font-size="13" fill="#4b5563">80</text>
<line x1="90" y1="535" x2="965" y2="535" stroke="#111827" stroke-width="1.4"/>
<line x1="90" y1="60" x2="90" y2="535" stroke="#111827" stroke-width="1.4"/>
<text x="527.50" y="594" text-anchor="middle" font-family="Arial, sans-serif" font-size="15" fill="#111827">Epoch</text>
<text x="24" y="297.50" text-anchor="middle" font-family="Arial, sans-serif" font-size="15" fill="#111827" transform="rotate(-90 24 297.50)">MSE</text>
<path d="M90.00,95.19 L101.08,375.79 L112.15,413.73 L123.23,440.71 L134.30,456.10 L145.38,463.08 L156.46,469.09 L167.53,482.40 L178.61,487.67 L189.68,488.67 L200.76,491.68 L211.84,496.68 L222.91,500.46 L233.99,499.05 L245.06,497.53 L256.14,502.00 L267.22,506.75 L278.29,507.22 L289.37,509.47 L300.44,510.64 L311.52,509.94 L322.59,511.49 L333.67,509.74 L344.75,512.85 L355.82,513.34 L366.90,514.76 L377.97,516.42 L389.05,514.40 L400.13,515.67 L411.20,514.98 L422.28,517.32 L433.35,517.22 L444.43,518.28 L455.51,517.10 L466.58,517.78 L477.66,519.22 L488.73,518.27 L499.81,521.83 L510.89,521.05 L521.96,519.09 L533.04,519.50 L544.11,520.78 L555.19,519.70 L566.27,521.73 L577.34,522.07 L588.42,522.92 L599.49,522.26 L610.57,521.34 L621.65,522.23 L632.72,523.63 L643.80,522.81 L654.87,524.23 L665.95,523.72 L677.03,519.13 L688.10,520.26 L699.18,521.10 L710.25,524.02 L721.33,524.95 L732.41,523.09 L743.48,523.31 L754.56,524.62 L765.63,523.73 L776.71,525.61 L787.78,526.32 L798.86,526.54 L809.94,525.46 L821.01,523.47 L832.09,525.69 L843.16,526.44 L854.24,526.63 L865.32,526.65 L876.39,526.55 L887.47,525.73 L898.54,526.39 L909.62,525.97 L920.70,526.77 L931.77,526.52 L942.85,527.40 L953.92,527.70 L965.00,526.56" fill="none" stroke="#2563eb" stroke-width="3" stroke-linejoin="round" stroke-linecap="round"/>
<path d="M90.00,303.44 L101.08,299.24 L112.15,327.57 L123.23,338.84 L134.30,384.45 L145.38,345.05 L156.46,408.69 L167.53,382.59 L178.61,403.92 L189.68,392.36 L200.76,406.26 L211.84,395.42 L222.91,394.54 L233.99,419.34 L245.06,400.42 L256.14,385.76 L267.22,410.79 L278.29,405.96 L289.37,370.61 L300.44,413.03 L311.52,384.44 L322.59,409.66 L333.67,417.46 L344.75,418.52 L355.82,404.44 L366.90,420.38 L377.97,412.57 L389.05,393.56 L400.13,409.97 L411.20,420.95 L422.28,405.90 L433.35,416.11 L444.43,413.30 L455.51,436.58 L466.58,405.86 L477.66,393.43 L488.73,416.07 L499.81,415.54 L510.89,423.59 L521.96,421.28 L533.04,422.61 L544.11,438.14 L555.19,423.52 L566.27,417.17 L577.34,404.05 L588.42,407.72 L599.49,419.26 L610.57,401.63 L621.65,419.32 L632.72,420.80 L643.80,431.82 L654.87,417.32 L665.95,417.32 L677.03,398.61 L688.10,404.30 L699.18,415.00 L710.25,426.77 L721.33,426.72 L732.41,413.81 L743.48,408.44 L754.56,426.23 L765.63,416.07 L776.71,418.17 L787.78,434.12 L798.86,422.10 L809.94,415.00 L821.01,405.46 L832.09,409.39 L843.16,421.97 L854.24,416.84 L865.32,431.64 L876.39,420.68 L887.47,412.48 L898.54,428.88 L909.62,418.71 L920.70,426.06 L931.77,415.08 L942.85,414.24 L953.92,420.81 L965.00,416.40" fill="none" stroke="#dc2626" stroke-width="3" stroke-linejoin="round" stroke-linecap="round"/>
<circle cx="544.11" cy="438.14" r="5" fill="#111827"/>
<line x1="544.11" y1="438.14" x2="686.11" y2="408.14" stroke="#374151" stroke-width="1"/>
<rect x="690.11" y="378.14" width="158" height="44" rx="4" fill="#ffffff" stroke="#d1d5db"/>
<text x="702.11" y="396.14" font-family="Arial, sans-serif" font-size="13" fill="#111827">Best val=0.016623</text>
<text x="702.11" y="414.14" font-family="Arial, sans-serif" font-size="13" fill="#111827">epoch=42</text>
<rect x="750" y="68" width="205" height="58" rx="4" fill="#ffffff" stroke="#d1d5db"/>
<line x1="768" y1="90" x2="808" y2="90" stroke="#2563eb" stroke-width="3"/>
<text x="820" y="95" font-family="Arial, sans-serif" font-size="14" fill="#111827">Train MSE</text>
<line x1="768" y1="112" x2="808" y2="112" stroke="#dc2626" stroke-width="3"/>
<text x="820" y="117" font-family="Arial, sans-serif" font-size="14" fill="#111827">Validation MSE</text>
</svg>